<?xml version="1.0" encoding="UTF-8" standalone="no"?>
<!-- Uploaded to: SVG Repo, www.svgrepo.com, Generator: SVG Repo Mixer Tools -->

<svg
   fill="#000000"
   height="16"
   width="16"
   version="1.1"
   id="Layer_1"
   viewBox="0 0 320 320"
   xml:space="preserve"
   sodipodi:docname="bbswitch-clock-symbolic.svg"
   inkscape:version="1.3.2 (091e20ef0f, 2023-11-25, custom)"
   xmlns:inkscape="http://www.inkscape.org/namespaces/inkscape"
   xmlns:sodipodi="http://sodipodi.sourceforge.net/DTD/sodipodi-0.dtd"
   xmlns="http://www.w3.org/2000/svg"
   xmlns:svg="http://www.w3.org/2000/svg"><defs
   id="defs3" /><sodipodi:namedview
   id="namedview3"
   pagecolor="#ffffff"
   bordercolor="#000000"
   borderopacity="0.25"
   inkscape:showpageshadow="2"
   inkscape:pageopacity="0.0"
   inkscape:pagecheckerboard="0"
   inkscape:deskcolor="#d1d1d1"
   inkscape:zoom="37.76"
   inkscape:cx="11.480403"
   inkscape:cy="16.273835"
   inkscape:window-width="1918"
   inkscape:window-height="2092"
   inkscape:window-x="1920"
   inkscape:window-y="37"
   inkscape:window-maximized="0"
   inkscape:current-layer="Layer_1" />
<g
   id="g3"
   transform="scale(0.65439673)">
	<g
   id="g2">
		<path
   d="M 244.5,0 C 109.3,0 0,109.3 0,244.5 0,379.7 109.3,489 244.5,489 379.7,489 489,379.8 489,244.5 489,109.2 379.8,0 244.5,0 Z m 20.8,447.4 V 437 c 0,-11.4 -9.4,-20.8 -20.8,-20.8 -11.4,0 -20.8,9.4 -20.8,20.8 v 10.4 C 127.9,437.6 51.4,361.1 41.7,265.4 H 51 c 11.4,0 20.8,-9.4 20.8,-20.8 0,-11.4 -9.4,-20.8 -20.8,-20.8 H 41.7 C 51.5,128 128,51.5 223.7,41.8 V 51 c 0,11.4 9.4,20.8 20.8,20.8 11.4,0 20.8,-9.4 20.8,-20.8 v -9.3 c 95.8,9.8 172.3,86.3 182,182 H 437 c -11.4,0 -20.8,9.4 -20.8,20.8 0,11.4 9.4,20.8 20.8,20.8 h 10.4 c -9.8,95.8 -86.3,172.3 -182.1,182.1 z"
   id="path1" />
		<path
   d="m 244.5,124.9 c -11.4,0 -20.8,9.4 -20.8,20.8 v 91.5 L 129,353.8 c -7.3,9.4 -5.2,21.8 3.1,29.1 11.6,8.5 23.9,2.1 28.1,-3.1 L 261.2,257 c 2.1,-3.1 4.2,-7.3 4.2,-12.5 v -98.8 c -0.1,-11.5 -9.4,-20.8 -20.9,-20.8 z"
   id="path2" />
	</g>
</g>
</svg>
